<?xml version="1.0" encoding="utf-8"?>
<svg viewBox="0 0 700 190" xmlns="http://www.w3.org/2000/svg">
  <path d="M 171.026 28.286 C 164.186 28.286 158.893 30.856 155.146 35.996 C 151.393 41.129 149.516 48.286 149.516 57.466 C 149.516 76.566 156.686 86.116 171.026 86.116 C 177.039 86.116 184.323 84.613 192.876 81.606 L 192.876 96.846 C 185.849 99.773 177.999 101.236 169.326 101.236 C 156.866 101.236 147.336 97.456 140.736 89.896 C 134.129 82.343 130.826 71.496 130.826 57.356 C 130.826 48.449 132.449 40.646 135.696 33.946 C 138.936 27.246 143.593 22.109 149.666 18.536 C 155.739 14.963 162.859 13.176 171.026 13.176 C 179.346 13.176 187.706 15.186 196.106 19.206 L 190.246 33.976 C 187.039 32.449 183.816 31.119 180.576 29.986 C 177.336 28.853 174.153 28.286 171.026 28.286 ZM 223.931 67.196 C 223.931 73.683 224.998 78.586 227.131 81.906 C 229.258 85.226 232.724 86.886 237.531 86.886 C 242.298 86.886 245.724 85.236 247.811 81.936 C 249.904 78.629 250.951 73.716 250.951 67.196 C 250.951 60.709 249.894 55.846 247.781 52.606 C 245.674 49.366 242.218 47.746 237.411 47.746 C 232.644 47.746 229.208 49.356 227.101 52.576 C 224.988 55.796 223.931 60.669 223.931 67.196 Z M 269.231 67.196 C 269.231 77.856 266.418 86.196 260.791 92.216 C 255.164 98.229 247.331 101.236 237.291 101.236 C 231.004 101.236 225.458 99.859 220.651 97.106 C 215.851 94.353 212.161 90.399 209.581 85.246 C 207.001 80.086 205.711 74.069 205.711 67.196 C 205.711 56.489 208.504 48.169 214.091 42.236 C 219.678 36.296 227.528 33.326 237.641 33.326 C 243.934 33.326 249.481 34.693 254.281 37.426 C 259.088 40.159 262.781 44.086 265.361 49.206 C 267.941 54.326 269.231 60.323 269.231 67.196 ZM 338.078 100.066 L 325.598 100.066 L 322.138 91.156 L 321.668 91.156 C 318.661 94.949 315.564 97.576 312.378 99.036 C 309.198 100.503 305.048 101.236 299.928 101.236 C 293.641 101.236 288.691 99.439 285.078 95.846 C 281.464 92.253 279.658 87.136 279.658 80.496 C 279.658 73.543 282.088 68.416 286.948 65.116 C 291.814 61.816 299.151 59.989 308.958 59.636 L 320.318 59.286 L 320.318 56.416 C 320.318 49.776 316.921 46.456 310.128 46.456 C 304.894 46.456 298.741 48.036 291.668 51.196 L 285.748 39.126 C 293.288 35.179 301.648 33.206 310.828 33.206 C 319.614 33.206 326.354 35.123 331.048 38.956 C 335.734 42.783 338.078 48.603 338.078 56.416 L 338.078 100.066 Z M 320.318 75.106 L 320.318 69.716 L 313.408 69.946 C 308.214 70.106 304.348 71.046 301.808 72.766 C 299.268 74.479 297.998 77.096 297.998 80.616 C 297.998 85.656 300.888 88.176 306.668 88.176 C 310.808 88.176 314.118 86.983 316.598 84.596 C 319.078 82.216 320.318 79.053 320.318 75.106 ZM 384.068 86.996 C 387.195 86.996 390.945 86.313 395.318 84.946 L 395.318 98.246 C 390.865 100.239 385.398 101.236 378.918 101.236 C 371.765 101.236 366.558 99.429 363.298 95.816 C 360.038 92.203 358.408 86.783 358.408 79.556 L 358.408 47.976 L 349.848 47.976 L 349.848 40.416 L 359.698 34.436 L 364.848 20.616 L 376.278 20.616 L 376.278 34.556 L 394.618 34.556 L 394.618 47.976 L 376.278 47.976 L 376.278 79.556 C 376.278 82.096 376.992 83.973 378.418 85.186 C 379.845 86.393 381.728 86.996 384.068 86.996 ZM 469.028 57.356 L 469.028 100.066 L 451.158 100.066 L 451.158 61.806 C 451.158 52.353 447.645 47.626 440.618 47.626 C 435.618 47.626 432.005 49.326 429.778 52.726 C 427.551 56.119 426.438 61.626 426.438 69.246 L 426.438 100.066 L 408.568 100.066 L 408.568 8.896 L 426.438 8.896 L 426.438 27.466 C 426.438 28.913 426.301 32.313 426.028 37.666 L 425.618 42.936 L 426.548 42.936 C 430.535 36.529 436.865 33.326 445.538 33.326 C 453.231 33.326 459.071 35.396 463.058 39.536 C 467.038 43.676 469.028 49.616 469.028 57.356 ZM 541.515 100.066 L 529.035 100.066 L 525.575 91.156 L 525.105 91.156 C 522.099 94.949 519.002 97.576 515.815 99.036 C 512.635 100.503 508.485 101.236 503.365 101.236 C 497.079 101.236 492.129 99.439 488.515 95.846 C 484.902 92.253 483.095 87.136 483.095 80.496 C 483.095 73.543 485.525 68.416 490.385 65.116 C 495.252 61.816 502.589 59.989 512.395 59.636 L 523.755 59.286 L 523.755 56.416 C 523.755 49.776 520.359 46.456 513.565 46.456 C 508.332 46.456 502.179 48.036 495.105 51.196 L 489.185 39.126 C 496.725 35.179 505.085 33.206 514.265 33.206 C 523.052 33.206 529.792 35.123 534.485 38.956 C 539.172 42.783 541.515 48.603 541.515 56.416 L 541.515 100.066 Z M 523.755 75.106 L 523.755 69.716 L 516.845 69.946 C 511.652 70.106 507.785 71.046 505.245 72.766 C 502.705 74.479 501.435 77.096 501.435 80.616 C 501.435 85.656 504.325 88.176 510.105 88.176 C 514.245 88.176 517.555 86.983 520.035 84.596 C 522.515 82.216 523.755 79.053 523.755 75.106 ZM 620.376 57.356 L 620.376 100.066 L 602.506 100.066 L 602.506 61.806 C 602.506 57.079 601.666 53.533 599.986 51.166 C 598.306 48.806 595.632 47.626 591.966 47.626 C 586.966 47.626 583.352 49.296 581.126 52.636 C 578.899 55.976 577.786 61.513 577.786 69.246 L 577.786 100.066 L 559.916 100.066 L 559.916 34.556 L 573.566 34.556 L 575.966 42.936 L 576.966 42.936 C 578.952 39.769 581.696 37.376 585.196 35.756 C 588.689 34.136 592.662 33.326 597.116 33.326 C 604.736 33.326 610.519 35.386 614.466 39.506 C 618.406 43.626 620.376 49.576 620.376 57.356 ZM 672.943 34.556 L 695.793 34.556 L 695.793 43.636 L 685.533 46.276 C 687.413 49.209 688.353 52.489 688.353 56.116 C 688.353 63.149 685.9 68.629 680.993 72.556 C 676.093 76.483 669.286 78.446 660.573 78.446 L 657.353 78.266 L 654.713 77.976 C 652.88 79.383 651.963 80.946 651.963 82.666 C 651.963 85.239 655.243 86.526 661.803 86.526 L 672.943 86.526 C 680.13 86.526 685.606 88.069 689.373 91.156 C 693.146 94.243 695.033 98.776 695.033 104.756 C 695.033 112.409 691.836 118.346 685.443 122.566 C 679.056 126.786 669.89 128.896 657.943 128.896 C 648.796 128.896 641.813 127.303 636.993 124.116 C 632.166 120.936 629.753 116.473 629.753 110.726 C 629.753 106.786 630.983 103.486 633.443 100.826 C 635.903 98.173 639.516 96.279 644.283 95.146 C 642.45 94.366 640.85 93.086 639.483 91.306 C 638.116 89.526 637.433 87.643 637.433 85.656 C 637.433 83.156 638.156 81.076 639.603 79.416 C 641.043 77.756 643.13 76.123 645.863 74.516 C 642.43 73.036 639.706 70.653 637.693 67.366 C 635.68 64.086 634.673 60.219 634.673 55.766 C 634.673 48.619 637 43.093 641.653 39.186 C 646.3 35.279 652.94 33.326 661.573 33.326 C 663.406 33.326 665.583 33.493 668.103 33.826 C 670.623 34.159 672.236 34.403 672.943 34.556 Z M 645.223 109.326 C 645.223 111.786 646.406 113.719 648.773 115.126 C 651.133 116.533 654.443 117.236 658.703 117.236 C 665.11 117.236 670.13 116.356 673.763 114.596 C 677.39 112.836 679.203 110.433 679.203 107.386 C 679.203 104.926 678.13 103.229 675.983 102.296 C 673.836 101.356 670.516 100.886 666.023 100.886 L 656.763 100.886 C 653.483 100.886 650.74 101.656 648.533 103.196 C 646.326 104.743 645.223 106.786 645.223 109.326 Z M 651.723 56.006 C 651.723 59.559 652.536 62.369 654.163 64.436 C 655.783 66.509 658.253 67.546 661.573 67.546 C 664.933 67.546 667.393 66.509 668.953 64.436 C 670.513 62.369 671.293 59.559 671.293 56.006 C 671.293 48.113 668.053 44.166 661.573 44.166 C 655.006 44.166 651.723 48.113 651.723 56.006 ZM 733.696 46.046 C 729.909 46.046 726.943 47.246 724.796 49.646 C 722.649 52.046 721.419 55.453 721.106 59.866 L 746.176 59.866 C 746.103 55.453 744.953 52.046 742.726 49.646 C 740.499 47.246 737.489 46.046 733.696 46.046 Z M 736.216 101.236 C 725.669 101.236 717.429 98.326 711.496 92.506 C 705.556 86.686 702.586 78.443 702.586 67.776 C 702.586 56.803 705.329 48.319 710.816 42.326 C 716.309 36.326 723.899 33.326 733.586 33.326 C 742.839 33.326 750.046 35.963 755.206 41.236 C 760.359 46.509 762.936 53.796 762.936 63.096 L 762.936 71.766 L 720.696 71.766 C 720.889 76.846 722.393 80.809 725.206 83.656 C 728.019 86.509 731.963 87.936 737.036 87.936 C 740.983 87.936 744.716 87.526 748.236 86.706 C 751.749 85.886 755.419 84.576 759.246 82.776 L 759.246 96.606 C 756.119 98.173 752.779 99.336 749.226 100.096 C 745.673 100.856 741.336 101.236 736.216 101.236 ZM 814.034 33.326 C 816.454 33.326 818.464 33.503 820.064 33.856 L 818.724 50.616 C 817.278 50.223 815.518 50.026 813.444 50.026 C 807.744 50.026 803.301 51.493 800.114 54.426 C 796.934 57.353 795.344 61.453 795.344 66.726 L 795.344 100.066 L 777.474 100.066 L 777.474 34.556 L 791.004 34.556 L 793.644 45.576 L 794.524 45.576 C 796.551 41.903 799.294 38.943 802.754 36.696 C 806.208 34.449 809.968 33.326 814.034 33.326 Z" transform="matrix(1, 0, 0, 1, -122.59375, -7.080327033996582)" style="fill: rgb(243, 243, 244); white-space: pre;"/>
  <path d="M 82.791 187.362 L 63.221 187.362 L 57.011 166.972 L 25.781 166.972 L 19.571 187.362 L 0.001 187.362 L 30.231 101.342 L 52.441 101.342 L 82.791 187.362 Z M 30.351 151.732 L 52.681 151.732 C 46.934 133.259 43.701 122.812 42.981 120.392 C 42.254 117.965 41.738 116.052 41.431 114.652 C 40.138 119.652 36.444 132.012 30.351 151.732 ZM 128.614 120.622 C 136.347 120.622 142.401 123.639 146.774 129.672 C 151.154 135.712 153.344 143.985 153.344 154.492 C 153.344 165.312 151.087 173.692 146.574 179.632 C 142.061 185.565 135.917 188.532 128.144 188.532 C 120.451 188.532 114.417 185.739 110.044 180.152 L 108.814 180.152 L 105.824 187.362 L 92.174 187.362 L 92.174 96.192 L 110.044 96.192 L 110.044 117.402 C 110.044 120.095 109.807 124.412 109.334 130.352 L 110.044 130.352 C 114.224 123.865 120.414 120.622 128.614 120.622 Z M 122.874 134.922 C 118.461 134.922 115.237 136.279 113.204 138.992 C 111.171 141.705 110.117 146.189 110.044 152.442 L 110.044 154.372 C 110.044 161.405 111.087 166.445 113.174 169.492 C 115.267 172.539 118.577 174.062 123.104 174.062 C 126.777 174.062 129.697 172.372 131.864 168.992 C 134.031 165.612 135.114 160.699 135.114 154.252 C 135.114 147.812 134.021 142.979 131.834 139.752 C 129.647 136.532 126.661 134.922 122.874 134.922 ZM 182.341 154.492 C 182.341 160.979 183.408 165.882 185.541 169.202 C 187.668 172.522 191.135 174.182 195.941 174.182 C 200.708 174.182 204.135 172.532 206.221 169.232 C 208.315 165.925 209.361 161.012 209.361 154.492 C 209.361 148.005 208.305 143.142 206.191 139.902 C 204.085 136.662 200.628 135.042 195.821 135.042 C 191.055 135.042 187.618 136.652 185.511 139.872 C 183.398 143.092 182.341 147.965 182.341 154.492 Z M 227.641 154.492 C 227.641 165.152 224.828 173.492 219.201 179.512 C 213.575 185.525 205.741 188.532 195.701 188.532 C 189.415 188.532 183.868 187.155 179.061 184.402 C 174.261 181.649 170.571 177.695 167.991 172.542 C 165.411 167.382 164.121 161.365 164.121 154.492 C 164.121 143.785 166.915 135.465 172.501 129.532 C 178.088 123.592 185.938 120.622 196.051 120.622 C 202.345 120.622 207.891 121.989 212.691 124.722 C 217.498 127.455 221.191 131.382 223.771 136.502 C 226.351 141.622 227.641 147.619 227.641 154.492 ZM 278.968 120.622 C 281.388 120.622 283.398 120.799 284.998 121.152 L 283.658 137.912 C 282.212 137.519 280.452 137.322 278.378 137.322 C 272.678 137.322 268.235 138.789 265.048 141.722 C 261.868 144.649 260.278 148.749 260.278 154.022 L 260.278 187.362 L 242.408 187.362 L 242.408 121.852 L 255.938 121.852 L 258.578 132.872 L 259.458 132.872 C 261.485 129.199 264.228 126.239 267.688 123.992 C 271.142 121.745 274.902 120.622 278.968 120.622 ZM 324.491 174.292 C 327.617 174.292 331.367 173.609 335.741 172.242 L 335.741 185.542 C 331.287 187.535 325.821 188.532 319.341 188.532 C 312.187 188.532 306.981 186.725 303.721 183.112 C 300.461 179.499 298.831 174.079 298.831 166.852 L 298.831 135.272 L 290.271 135.272 L 290.271 127.712 L 300.121 121.732 L 305.271 107.912 L 316.701 107.912 L 316.701 121.852 L 335.041 121.852 L 335.041 135.272 L 316.701 135.272 L 316.701 166.852 C 316.701 169.392 317.414 171.269 318.841 172.482 C 320.267 173.689 322.151 174.292 324.491 174.292 ZM 348.22 104.922 C 348.22 99.102 351.464 96.192 357.95 96.192 C 364.437 96.192 367.68 99.102 367.68 104.922 C 367.68 107.695 366.867 109.852 365.24 111.392 C 363.62 112.939 361.19 113.712 357.95 113.712 C 351.464 113.712 348.22 110.782 348.22 104.922 Z M 366.86 121.852 L 366.86 187.362 L 348.99 187.362 L 348.99 121.852 L 366.86 121.852 ZM 399.841 154.492 C 399.841 160.979 400.908 165.882 403.041 169.202 C 405.168 172.522 408.635 174.182 413.441 174.182 C 418.208 174.182 421.635 172.532 423.721 169.232 C 425.815 165.925 426.861 161.012 426.861 154.492 C 426.861 148.005 425.805 143.142 423.691 139.902 C 421.585 136.662 418.128 135.042 413.321 135.042 C 408.555 135.042 405.118 136.652 403.011 139.872 C 400.898 143.092 399.841 147.965 399.841 154.492 Z M 445.141 154.492 C 445.141 165.152 442.328 173.492 436.701 179.512 C 431.075 185.525 423.241 188.532 413.201 188.532 C 406.915 188.532 401.368 187.155 396.561 184.402 C 391.761 181.649 388.071 177.695 385.491 172.542 C 382.911 167.382 381.621 161.365 381.621 154.492 C 381.621 143.785 384.415 135.465 390.001 129.532 C 395.588 123.592 403.438 120.622 413.551 120.622 C 419.845 120.622 425.391 121.989 430.191 124.722 C 434.998 127.455 438.691 131.382 441.271 136.502 C 443.851 141.622 445.141 147.619 445.141 154.492 ZM 520.368 144.652 L 520.368 187.362 L 502.498 187.362 L 502.498 149.102 C 502.498 144.375 501.658 140.829 499.978 138.462 C 498.298 136.102 495.625 134.922 491.958 134.922 C 486.958 134.922 483.345 136.592 481.118 139.932 C 478.892 143.272 477.778 148.809 477.778 156.542 L 477.778 187.362 L 459.908 187.362 L 459.908 121.852 L 473.558 121.852 L 475.958 130.232 L 476.958 130.232 C 478.945 127.065 481.688 124.672 485.188 123.052 C 488.682 121.432 492.655 120.622 497.108 120.622 C 504.728 120.622 510.512 122.682 514.458 126.802 C 518.398 130.922 520.368 136.872 520.368 144.652 ZM 584.476 167.912 C 584.476 174.625 582.142 179.742 577.476 183.262 C 572.802 186.775 565.819 188.532 556.526 188.532 C 551.759 188.532 547.696 188.212 544.336 187.572 C 540.976 186.925 537.832 185.975 534.906 184.722 L 534.906 169.962 C 538.226 171.522 541.966 172.829 546.126 173.882 C 550.286 174.942 553.946 175.472 557.106 175.472 C 563.592 175.472 566.836 173.595 566.836 169.842 C 566.836 168.435 566.406 167.292 565.546 166.412 C 564.686 165.532 563.202 164.535 561.096 163.422 C 558.989 162.309 556.176 161.012 552.656 159.532 C 547.616 157.419 543.916 155.465 541.556 153.672 C 539.189 151.872 537.469 149.812 536.396 147.492 C 535.322 145.165 534.786 142.302 534.786 138.902 C 534.786 133.082 537.042 128.582 541.556 125.402 C 546.069 122.215 552.466 120.622 560.746 120.622 C 568.632 120.622 576.309 122.342 583.776 125.782 L 578.376 138.672 C 575.096 137.265 572.032 136.112 569.186 135.212 C 566.332 134.312 563.419 133.862 560.446 133.862 C 555.172 133.862 552.536 135.289 552.536 138.142 C 552.536 139.742 553.386 141.129 555.086 142.302 C 556.786 143.475 560.509 145.215 566.256 147.522 C 571.369 149.589 575.119 151.522 577.506 153.322 C 579.886 155.115 581.642 157.185 582.776 159.532 C 583.909 161.872 584.476 164.665 584.476 167.912 Z" transform="matrix(1, 0, 0, 1, 0, 0)" style="fill: rgb(243, 243, 244); white-space: pre;"/>
</svg>