<?xml version="1.0" standalone="no"?>
<!DOCTYPE svg PUBLIC "-//W3C//DTD SVG 20010904//EN"
 "http://www.w3.org/TR/2001/REC-SVG-20010904/DTD/svg10.dtd">
<svg version="1.0" xmlns="http://www.w3.org/2000/svg"
 width="563.000000pt" height="563.000000pt" viewBox="0 0 563.000000 563.000000"
 preserveAspectRatio="xMidYMid meet">
<metadata>
Created by potrace 1.11, written by Peter Selinger 2001-2013
</metadata>
<g transform="translate(0.000000,563.000000) scale(0.100000,-0.100000)"
fill="#000000" stroke="none">
<path d="M2304 5597 c-26 -23 -28 -31 -57 -268 -16 -134 -33 -247 -36 -252 -6
-6 -365 -140 -556 -208 -27 -9 -88 -32 -135 -49 -47 -17 -132 -49 -190 -70
-197 -71 -1065 -388 -1153 -421 -149 -55 -175 -116 -114 -274 19 -49 135 -364
257 -700 225 -617 262 -718 273 -745 4 -8 81 -222 173 -475 92 -253 173 -476
180 -495 18 -47 408 -1114 444 -1215 16 -44 52 -141 79 -215 26 -74 59 -147
73 -161 13 -15 44 -33 68 -40 47 -14 63 -10 400 114 52 20 338 124 635 233
297 108 567 207 600 219 33 12 260 95 505 184 l445 163 275 -32 c151 -17 321
-38 376 -46 56 -8 113 -14 127 -14 40 0 77 38 83 85 3 22 23 189 45 370 22
182 46 386 54 455 15 126 37 314 74 620 11 91 32 262 46 380 14 118 35 289 46
380 27 220 53 436 79 655 11 99 22 191 25 205 2 14 9 70 15 125 6 55 17 150
25 210 8 61 26 209 40 330 14 121 35 289 46 373 17 137 18 155 4 181 -16 32
-27 37 -95 45 -25 3 -101 12 -170 20 -316 39 -484 59 -875 106 -231 28 -474
57 -540 65 -66 8 -194 23 -285 35 -217 26 -724 87 -925 110 -88 11 -191 24
-230 29 -96 14 -100 14 -131 -12z m-128 -844 c-4 -43 -15 -148 -26 -233 -25
-202 -47 -377 -70 -575 -32 -273 -59 -493 -80 -665 -39 -321 -60 -497 -75
-625 -8 -71 -22 -184 -30 -250 -16 -126 -62 -503 -95 -790 -11 -93 -25 -200
-30 -237 -14 -96 -13 -114 13 -142 20 -22 37 -26 197 -46 96 -11 247 -29 335
-40 88 -11 275 -33 415 -50 140 -16 307 -37 370 -45 63 -8 140 -17 170 -20 30
-3 102 -12 160 -20 58 -7 142 -17 188 -21 45 -3 82 -10 82 -14 0 -4 -183 -74
-407 -155 -225 -82 -424 -154 -443 -161 -19 -7 -287 -105 -595 -217 -447 -163
-562 -202 -568 -190 -5 7 -54 138 -109 291 -55 152 -113 311 -128 352 -15 41
-112 305 -214 585 -103 281 -205 560 -227 620 -22 61 -58 157 -78 215 -83 227
-331 909 -354 970 -74 197 -297 814 -299 827 -2 11 60 38 242 105 135 49 256
93 270 98 14 5 54 20 90 33 36 13 272 100 525 192 253 92 496 181 540 197 44
16 91 34 105 38 14 5 48 18 75 28 28 11 52 21 54 21 2 1 1 -34 -3 -76z"/>
</g>
</svg>
