<?xml version="1.0" standalone="no"?>
<!DOCTYPE svg PUBLIC "-//W3C//DTD SVG 20010904//EN"
 "http://www.w3.org/TR/2001/REC-SVG-20010904/DTD/svg10.dtd">
<svg version="1.0" xmlns="http://www.w3.org/2000/svg"
 width="512.000000pt" height="512.000000pt" viewBox="0 0 512.000000 512.000000"
 preserveAspectRatio="xMidYMid meet">
<metadata>
Created by potrace 1.11, written by Peter Selinger 2001-2013
</metadata>
<g transform="translate(0.000000,512.000000) scale(0.100000,-0.100000)"
fill="#000000" stroke="none">
<path d="M2415 4469 c3 -4 -2 -10 -11 -13 -8 -3 -12 -2 -9 4 3 6 1 10 -4 10
-6 0 -11 -4 -11 -8 0 -5 -20 -8 -45 -7 -25 0 -45 -3 -45 -8 0 -4 -4 -6 -9 -2
-5 3 -13 1 -16 -5 -5 -8 -11 -8 -20 0 -10 8 -16 7 -23 -7 -6 -10 -14 -15 -18
-11 -4 5 -13 3 -21 -3 -10 -9 -17 -8 -30 2 -16 13 -17 12 -5 -3 14 -17 1 -35
-18 -23 -5 3 -10 2 -10 -4 0 -6 -7 -8 -15 -5 -8 4 -15 2 -15 -3 0 -4 -9 -14
-21 -21 -14 -9 -19 -10 -14 -2 4 7 -4 4 -19 -5 -14 -10 -26 -22 -26 -27 0 -5
-4 -7 -9 -4 -5 3 -12 -1 -15 -10 -4 -9 -13 -14 -21 -10 -9 3 -15 0 -15 -9 0
-7 -5 -17 -12 -21 -7 -5 -8 -2 -3 7 4 8 -1 5 -12 -6 -11 -11 -18 -24 -15 -30
3 -5 -3 -3 -14 5 -10 8 -16 11 -12 6 4 -5 0 -15 -8 -23 -8 -8 -12 -19 -9 -24
4 -5 -1 -6 -9 -3 -9 3 -19 -3 -26 -16 -6 -11 -16 -17 -22 -14 -7 4 -8 3 -4 -4
4 -6 -2 -17 -14 -24 -21 -14 -29 -34 -7 -22 7 4 9 3 4 -2 -5 -5 -14 -9 -20 -9
-7 0 -11 -8 -11 -18 2 -14 -1 -15 -12 -6 -12 10 -13 9 -8 -5 4 -11 2 -16 -7
-14 -8 2 -13 -3 -11 -9 1 -7 -3 -13 -8 -13 -6 0 -15 -11 -20 -25 -5 -14 -14
-25 -20 -25 -6 0 -8 -4 -5 -10 3 -5 1 -10 -5 -10 -6 0 -9 -4 -5 -9 3 -5 0 -13
-6 -17 -8 -4 -9 -3 -5 4 4 7 2 12 -5 12 -6 0 -9 -8 -6 -20 3 -11 1 -18 -4 -14
-8 5 -13 -9 -6 -21 1 -2 -7 -10 -17 -18 -11 -8 -16 -19 -12 -26 4 -7 2 -10 -5
-9 -7 2 -16 -8 -20 -22 -4 -14 -8 -20 -9 -15 -1 6 -5 0 -11 -13 -6 -15 -13
-21 -21 -16 -10 6 -10 4 0 -8 10 -13 10 -17 -4 -22 -9 -4 -14 -12 -10 -22 3
-8 2 -12 -4 -9 -6 3 -10 1 -10 -5 0 -6 -6 -8 -12 -4 -10 5 -10 4 -1 -6 9 -10
8 -16 -3 -28 -8 -8 -13 -20 -10 -28 3 -8 -2 -11 -15 -9 -17 4 -19 2 -9 -10 10
-12 10 -15 0 -15 -7 0 -10 -7 -7 -15 7 -18 -9 -30 -17 -13 -3 7 -4 4 -3 -7 2
-11 -4 -26 -13 -33 -13 -12 -13 -13 0 -7 10 4 9 2 -2 -8 -10 -8 -18 -24 -18
-36 0 -18 -4 -21 -22 -16 -13 3 -18 3 -13 -2 17 -13 17 -43 0 -49 -8 -3 -15
-10 -15 -16 0 -5 6 -6 13 -3 6 4 4 0 -6 -8 -16 -14 -24 -30 -26 -61 -1 -5 -9
-2 -18 5 -11 10 -14 10 -9 2 4 -7 9 -22 11 -34 3 -15 0 -19 -11 -15 -8 3 -12
2 -9 -3 3 -5 2 -12 -3 -15 -4 -2 -9 -19 -10 -36 -2 -19 1 -29 8 -25 5 3 10 0
10 -7 0 -11 2 -10 9 0 7 11 9 10 15 -3 3 -9 10 -14 15 -11 5 4 16 0 24 -8 8
-8 17 -12 21 -9 3 3 8 -2 12 -11 7 -19 30 -21 37 -3 4 10 6 10 6 0 1 -7 6 -13
12 -13 6 0 9 7 5 15 -3 8 -1 15 4 15 5 0 7 6 4 14 -3 7 1 20 9 27 8 8 20 31
26 52 7 20 17 37 22 37 5 0 9 6 9 13 0 18 24 67 33 67 4 0 7 5 7 11 0 5 -6 7
-12 3 -8 -4 -10 -3 -5 2 5 5 14 9 20 9 5 0 11 11 12 24 1 13 9 29 17 35 8 6
14 21 13 33 -1 13 3 19 11 16 6 -2 15 1 20 8 4 8 3 10 -4 5 -8 -5 -10 -2 -6 8
3 9 11 13 18 9 6 -4 4 2 -4 13 -8 10 -10 16 -6 12 13 -11 36 11 29 28 -3 8 -1
14 4 14 4 0 14 9 21 21 9 13 9 18 2 14 -8 -5 -7 0 1 13 7 12 16 19 20 16 4 -2
10 3 13 12 4 10 1 13 -7 9 -6 -3 -2 2 11 11 12 9 22 25 22 36 0 10 7 21 15 24
8 4 12 10 9 15 -3 5 -1 9 5 9 6 0 8 7 4 15 -3 10 0 15 8 13 8 -2 13 3 12 10
-2 6 4 12 13 12 10 0 14 6 11 14 -3 8 1 17 9 20 9 3 12 11 8 18 -5 8 -2 9 10
5 9 -4 15 -3 12 2 -8 12 29 52 39 43 5 -4 5 -1 1 6 -9 15 27 55 40 44 4 -4 4
-1 0 6 -4 7 -1 15 8 18 9 3 13 11 9 18 -4 6 2 4 12 -4 10 -8 16 -10 12 -3 -9
15 21 45 36 36 6 -4 8 0 4 10 -4 10 1 18 14 22 10 4 19 11 19 16 0 6 5 7 10 4
6 -3 10 -1 10 5 0 6 5 8 12 4 8 -5 9 -2 5 10 -4 11 -3 15 4 11 6 -4 19 1 30
11 19 17 20 17 14 -2 -4 -13 -2 -11 7 4 7 15 18 22 30 19 10 -3 15 -1 12 4 -5
9 52 26 69 21 5 -1 6 2 3 7 -3 5 1 12 10 15 10 4 13 2 8 -7 -6 -9 -5 -9 8 0 8
7 19 9 23 5 5 -4 6 0 3 8 -4 11 0 16 13 16 14 0 16 -3 6 -15 -10 -12 -9 -13
11 -2 12 6 27 9 32 6 6 -3 10 -1 10 4 0 6 5 11 11 11 5 0 7 -6 3 -12 -6 -10
-4 -10 7 -2 21 16 51 26 44 14 -3 -6 -1 -10 4 -10 6 0 11 5 11 10 0 6 7 10 15
10 8 0 15 -6 15 -12 0 -9 4 -8 10 2 9 13 10 13 10 0 0 -13 1 -13 10 0 9 14 14
7 11 -13 -1 -5 3 -6 9 -2 6 3 7 12 3 18 -4 7 2 5 12 -3 10 -8 16 -10 12 -4 -3
6 0 11 8 11 8 0 11 -5 8 -10 -3 -5 0 -7 8 -5 8 3 26 1 42 -3 18 -5 27 -4 27 4
0 6 7 2 15 -9 15 -19 15 -19 8 1 -6 17 -4 18 9 8 8 -7 18 -10 21 -6 4 3 7 1 7
-5 0 -7 14 -12 30 -12 17 0 30 -5 30 -12 0 -9 4 -8 10 2 7 11 10 11 10 2 0 -7
5 -10 10 -7 6 3 10 2 10 -4 0 -5 11 -8 25 -7 14 2 22 -1 18 -7 -4 -6 2 -8 15
-5 12 3 21 3 20 -1 -2 -19 3 -24 12 -11 8 12 10 12 10 -5 0 -17 2 -17 10 -5 8
13 10 12 10 -3 0 -9 3 -16 8 -16 20 3 43 -2 38 -9 -2 -4 5 -9 17 -9 12 -1 23
-7 25 -13 2 -5 8 -8 13 -4 5 3 12 -2 15 -10 3 -9 15 -16 25 -16 10 0 19 -6 19
-14 0 -10 7 -13 20 -11 11 2 18 0 15 -4 -7 -12 24 -23 37 -14 7 3 8 1 4 -5 -7
-12 27 -52 45 -52 5 0 7 -5 3 -12 -5 -8 -2 -9 10 -5 9 4 14 3 11 -2 -3 -5 4
-12 15 -16 11 -4 20 -15 20 -26 0 -11 4 -18 9 -14 12 7 33 -29 23 -39 -3 -4 1
-4 11 0 11 4 17 1 17 -9 0 -8 7 -18 16 -21 9 -4 14 -10 10 -13 -4 -4 4 -13 16
-20 13 -7 18 -12 11 -13 -7 0 -10 -7 -6 -16 5 -13 7 -13 14 -2 6 9 9 7 9 -8 0
-12 7 -25 16 -28 14 -5 14 -9 3 -23 -12 -15 -12 -16 5 -10 14 6 17 4 12 -8 -3
-8 -1 -15 5 -15 15 0 32 -52 19 -60 -8 -5 -6 -9 5 -13 10 -5 14 -3 9 5 -4 7
-3 8 5 4 9 -6 9 -11 1 -21 -7 -9 -6 -16 5 -25 8 -7 12 -17 9 -22 -4 -6 0 -14
7 -19 12 -7 12 -9 0 -9 -11 0 -10 -4 5 -16 10 -8 12 -12 4 -8 -12 7 -12 4 1
-17 12 -18 14 -30 7 -42 -5 -10 -5 -17 0 -17 10 0 8 -42 -4 -61 -4 -7 -3 -10
3 -6 6 4 13 -2 16 -13 3 -11 1 -18 -4 -14 -5 3 -9 -2 -9 -11 0 -10 5 -13 13
-9 6 4 3 -3 -8 -16 -11 -13 -15 -20 -9 -17 7 4 14 -2 17 -13 3 -13 1 -18 -6
-13 -6 4 -8 0 -5 -9 4 -8 2 -21 -2 -29 -5 -7 -5 -18 1 -25 7 -8 6 -14 -1 -19
-6 -4 -7 -13 -1 -23 10 -21 3 -45 -11 -36 -7 4 -7 0 0 -12 10 -20 5 -47 -7
-40 -4 3 -8 -1 -8 -9 0 -8 5 -15 11 -15 8 0 8 -2 0 -8 -12 -8 -28 -45 -16 -38
5 3 9 -2 9 -10 0 -8 -6 -13 -12 -10 -6 2 -12 -2 -12 -10 0 -7 5 -11 11 -8 6 3
3 -1 -6 -9 -10 -8 -18 -17 -18 -20 0 -4 8 -4 18 0 15 5 14 4 -2 -9 -12 -9 -16
-20 -11 -28 6 -9 4 -11 -5 -5 -10 6 -12 4 -7 -8 3 -10 2 -17 -3 -17 -5 0 -6
-7 -3 -17 4 -9 2 -14 -3 -10 -6 3 -11 -9 -12 -26 -2 -17 -8 -36 -14 -42 -8 -7
-9 -6 -3 4 5 9 4 12 -3 8 -5 -4 -8 -16 -5 -27 3 -11 0 -26 -6 -33 -6 -8 -7
-18 -3 -22 4 -5 -1 -5 -11 -2 -15 6 -16 4 -6 -14 8 -15 8 -19 0 -15 -6 4 -11
0 -11 -9 0 -9 -10 -31 -22 -48 -12 -17 -16 -27 -7 -22 12 8 12 6 1 -8 -8 -9
-10 -22 -6 -29 6 -10 5 -11 -7 -1 -12 10 -15 7 -17 -14 -1 -15 -5 -29 -10 -32
-14 -11 -37 -45 -25 -37 9 5 11 2 7 -8 -3 -9 -10 -14 -14 -11 -4 3 -11 -2 -14
-11 -4 -10 -2 -13 7 -9 6 4 3 -1 -7 -9 -11 -9 -16 -16 -11 -16 5 0 -1 -7 -14
-16 -18 -13 -20 -18 -10 -25 11 -7 11 -9 1 -9 -7 0 -20 -16 -28 -35 -8 -19
-19 -35 -24 -35 -6 0 -9 -4 -8 -9 2 -5 -6 -17 -17 -26 -11 -9 -13 -13 -5 -9
12 7 13 5 3 -8 -7 -8 -10 -18 -6 -22 4 -4 -1 -4 -11 0 -14 5 -17 4 -12 -4 4
-7 2 -12 -4 -12 -7 0 -10 -7 -7 -14 4 -9 -2 -17 -14 -21 -10 -4 -17 -11 -14
-16 4 -5 -1 -12 -9 -15 -9 -3 -13 -10 -10 -15 3 -5 0 -9 -6 -9 -6 0 -9 -4 -5
-9 3 -6 -3 -14 -12 -20 -10 -5 -17 -13 -17 -18 1 -4 -3 -7 -9 -5 -6 2 -4 -5 4
-14 9 -12 9 -15 2 -10 -8 4 -13 1 -13 -8 0 -9 -8 -16 -17 -17 -13 0 -14 -2 -4
-6 11 -4 8 -10 -10 -25 -13 -11 -17 -16 -9 -12 12 6 13 5 3 -8 -7 -8 -10 -17
-8 -20 3 -3 -6 -13 -19 -22 -21 -13 -24 -20 -16 -41 8 -20 7 -23 -7 -18 -11 4
-14 2 -9 -5 4 -6 -3 -21 -15 -33 -13 -13 -16 -20 -7 -17 8 4 15 1 15 -7 0 -8
-7 -11 -15 -7 -10 3 -13 1 -8 -6 4 -7 3 -12 -2 -12 -5 0 -9 -10 -8 -23 1 -13
-4 -21 -12 -19 -8 1 -11 -2 -8 -7 4 -5 2 -13 -4 -16 -6 -4 -8 -16 -4 -27 4
-14 2 -18 -5 -14 -7 5 -9 1 -5 -8 4 -9 1 -16 -6 -16 -6 0 -10 -6 -7 -12 2 -7
-3 -19 -12 -26 -13 -11 -13 -12 -1 -6 12 6 13 4 3 -7 -17 -17 -17 -32 0 -23 6
4 1 -3 -11 -16 -19 -18 -21 -24 -10 -31 11 -7 11 -9 -1 -9 -7 0 -11 -6 -7 -15
3 -9 0 -15 -10 -15 -8 0 -12 -5 -9 -10 4 -6 12 -7 18 -3 7 4 6 0 -2 -10 -15
-19 -26 -23 -15 -5 4 6 3 8 -4 5 -5 -4 -9 -18 -8 -31 2 -17 -3 -26 -15 -29
-11 -3 -19 -1 -19 4 0 4 -7 6 -15 3 -8 -4 -22 -1 -30 6 -11 9 -15 9 -15 1 0
-7 -5 -9 -10 -6 -23 15 -70 24 -64 13 5 -7 1 -9 -9 -5 -14 5 -17 1 -17 -21 0
-47 -3 -62 -14 -62 -6 0 -4 -5 4 -10 12 -7 12 -10 1 -10 -7 0 -11 -6 -8 -14 3
-7 0 -19 -6 -26 -9 -10 -9 -11 0 -6 15 8 5 -66 -11 -76 -8 -5 -7 -8 2 -8 6 0
12 -5 12 -11 0 -5 -6 -7 -12 -3 -8 5 -7 0 2 -11 9 -11 10 -16 3 -11 -9 5 -13
1 -13 -13 0 -10 6 -22 13 -24 8 -4 7 -6 -3 -6 -11 -1 -15 -13 -15 -45 0 -38 2
-43 14 -33 12 10 13 9 2 -10 -9 -18 -9 -23 1 -23 9 0 9 -3 0 -12 -9 -9 -7 -15
6 -25 11 -9 11 -12 2 -7 -11 6 -10 2 3 -13 20 -23 23 -37 5 -27 -8 4 -10 3 -5
-2 5 -5 14 -9 20 -9 7 -1 11 -7 9 -14 -1 -7 4 -18 11 -25 17 -13 29 -56 15
-56 -5 0 -6 -4 -3 -10 3 -5 1 -10 -6 -10 -8 0 -7 -5 2 -17 12 -15 12 -16 -4
-10 -11 4 -16 3 -12 -3 3 -5 1 -18 -4 -27 -6 -10 -11 -14 -11 -9 0 5 -7 3 -15
-4 -12 -10 -15 -10 -15 1 0 12 -2 12 -9 0 -5 -8 -14 -10 -21 -6 -9 6 -11 4 -5
-5 6 -10 4 -12 -8 -7 -10 4 -16 2 -14 -6 1 -7 -4 -11 -10 -10 -7 2 -13 -2 -13
-8 0 -5 -5 -7 -12 -3 -7 4 -8 3 -4 -5 4 -6 0 -14 -8 -17 -9 -3 -14 -10 -11
-14 3 -4 -2 -11 -11 -14 -8 -3 -12 -11 -8 -17 3 -6 -4 -25 -16 -42 -13 -18
-17 -26 -9 -19 21 20 34 14 14 -8 -17 -18 -17 -20 -1 -26 14 -5 15 -9 4 -15
-8 -6 -9 -9 -2 -9 7 0 15 -7 18 -16 3 -8 2 -12 -4 -9 -6 3 -10 1 -10 -4 0 -10
14 -15 33 -12 5 1 6 -3 2 -9 -3 -6 -10 -8 -14 -6 -4 3 -8 -1 -8 -8 0 -8 6 -12
12 -9 7 2 15 -6 18 -17 3 -12 10 -19 15 -16 6 3 8 -2 5 -13 -3 -10 1 -22 8
-26 8 -6 10 -4 4 6 -4 8 2 4 14 -8 11 -12 21 -27 21 -33 0 -6 4 -9 8 -6 4 2 8
-15 7 -40 0 -39 -2 -42 -14 -27 -12 16 -12 16 -6 -7 4 -14 10 -31 12 -37 3 -7
0 -13 -7 -13 -6 0 -8 5 -4 12 4 7 3 8 -5 4 -6 -4 -9 -11 -7 -15 8 -13 -9 -30
-34 -35 -14 -2 -24 -9 -23 -15 2 -6 -4 -8 -14 -4 -11 4 -14 3 -9 -5 5 -8 2
-10 -8 -6 -9 3 -16 1 -16 -6 0 -6 -4 -9 -9 -5 -5 3 -11 -5 -13 -17 -2 -13 -9
-22 -17 -20 -8 2 -11 -3 -8 -11 3 -8 0 -20 -6 -26 -9 -9 -8 -14 3 -21 21 -14
350 -13 350 1 0 5 -6 7 -12 3 -8 -5 -8 -1 2 12 22 30 24 30 17 9 -7 -19 -6
-19 7 -1 9 10 20 15 27 10 7 -4 10 -3 6 2 -3 5 2 18 10 29 15 19 15 19 9 1 -7
-19 -6 -19 12 -3 10 9 22 14 27 10 4 -5 5 2 2 15 -4 19 -2 22 14 17 15 -5 19
-3 17 9 -2 8 6 22 17 31 11 9 14 14 8 10 -7 -3 -13 -2 -13 4 0 5 6 11 13 14 9
3 8 8 -3 22 -8 10 -10 16 -3 12 8 -5 11 0 10 13 -1 11 -8 20 -17 20 -13 0 -13
1 0 10 11 7 11 10 2 10 -7 0 -10 5 -7 10 3 6 -1 10 -9 10 -9 0 -16 7 -16 15 0
13 -12 19 -32 16 -4 0 -5 6 -2 14 4 8 1 15 -5 15 -22 0 -49 32 -43 53 4 15 2
18 -8 12 -9 -6 -11 -4 -6 4 5 7 15 10 23 6 12 -4 13 -2 5 7 -10 13 -10 68 2
86 3 6 1 12 -4 14 -6 2 -4 11 5 23 9 11 13 13 9 5 -7 -13 -5 -13 9 -1 14 11
17 11 17 0 0 -9 3 -10 8 -4 4 6 21 18 39 27 30 15 31 15 26 0 -4 -10 5 -5 20
11 14 15 31 27 37 27 6 0 8 5 5 10 -3 6 -1 10 5 10 7 0 10 7 6 15 -3 8 0 14 6
12 6 -1 13 4 16 12 3 9 0 11 -8 6 -9 -6 -10 -3 -1 12 7 14 7 24 -2 33 -10 10
-9 11 3 6 8 -4 4 2 -9 13 -14 13 -18 21 -10 21 9 1 8 4 -4 11 -9 6 -15 14 -12
20 4 5 -1 9 -10 9 -9 0 -14 4 -11 8 3 5 -6 16 -20 26 -13 11 -24 26 -24 35 0
13 -2 13 -9 3 -5 -9 -8 -3 -7 17 1 17 4 31 8 31 4 0 3 12 -3 26 -9 25 -8 26 8
13 10 -7 15 -10 11 -5 -4 5 -3 17 3 27 7 14 6 19 -3 19 -9 0 -10 3 -2 8 6 4
12 15 12 25 4 45 6 48 21 42 11 -3 10 0 -3 10 -17 13 -18 15 -3 15 18 0 19 20
2 32 -6 5 -5 8 3 8 7 0 10 5 7 10 -3 5 -2 10 3 10 6 0 8 10 4 23 -5 18 -3 20
9 10 12 -10 15 -8 15 7 0 10 -4 16 -8 14 -13 -9 -9 7 7 22 11 11 12 21 4 41
-8 22 -8 24 5 14 12 -10 14 -8 9 11 -4 18 -3 20 6 8 7 -9 11 -10 11 -3 0 6 -5
15 -10 18 -7 4 -7 11 -2 18 5 7 8 20 7 30 -2 10 1 14 8 10 7 -4 8 0 3 12 -5
14 -4 15 7 7 10 -8 12 -5 11 16 -1 15 4 33 10 41 7 10 7 13 0 8 -6 -3 -11 0
-11 8 0 8 8 12 20 10 15 -3 17 -1 7 10 -8 10 -8 19 -1 33 6 11 7 22 4 26 -3 3
-1 6 6 6 7 0 10 4 7 9 -3 5 1 12 10 15 9 3 14 13 10 21 -3 8 0 17 6 21 7 4 6
9 -3 15 -11 7 -11 9 -1 9 8 0 10 5 6 12 -6 10 -5 10 8 1 13 -11 15 -9 13 15
-1 16 6 32 17 40 15 11 16 17 7 28 -9 11 -8 15 5 20 9 3 16 12 16 20 0 8 6 14
13 14 9 0 9 2 -1 9 -11 6 -10 10 3 15 11 4 15 13 12 26 -3 13 1 24 14 30 11 6
16 16 12 26 -3 9 0 14 8 12 8 -2 14 5 14 15 0 10 9 25 20 33 11 8 19 18 17 22
-1 4 5 15 13 25 8 9 11 17 7 17 -4 0 1 5 11 11 9 5 17 17 17 26 0 9 6 13 15 9
13 -4 14 -2 5 14 -8 16 -8 20 2 18 7 -2 12 3 10 10 -1 6 4 12 12 12 8 0 18 5
22 12 4 7 3 8 -4 4 -7 -4 -12 -3 -12 2 0 6 7 13 16 16 10 4 14 12 10 22 -6 15
-4 15 10 3 13 -11 15 -11 14 2 -5 31 1 47 33 79 17 18 25 30 17 25 -13 -8 -13
-7 -1 8 7 9 10 17 6 17 -5 0 -1 8 8 18 10 10 14 22 10 27 -5 4 -2 5 5 1 6 -4
12 -2 12 4 0 6 4 8 10 5 5 -3 7 0 4 8 -3 8 0 18 5 22 6 3 9 11 6 16 -4 5 -1 9
5 9 6 0 8 5 4 12 -5 8 -2 9 11 4 15 -5 16 -4 5 9 -9 11 -9 15 -1 15 7 0 9 5 6
10 -3 6 -1 10 6 10 7 0 10 3 6 6 -3 4 0 13 8 20 8 8 12 23 10 34 -2 11 0 18 6
15 5 -4 9 -1 9 5 0 6 4 9 9 6 11 -7 9 13 -3 32 -5 8 -3 12 6 10 7 -2 13 4 13
12 0 8 7 20 15 27 8 6 12 15 7 19 -4 4 0 18 9 32 12 18 12 23 3 17 -8 -3 -5 1
5 9 14 11 15 16 6 16 -9 0 -8 5 6 16 10 8 13 12 5 8 -10 -5 -12 -3 -5 7 4 8
10 23 11 34 2 10 7 22 12 25 4 3 7 13 6 22 -2 9 4 19 12 22 13 5 13 9 2 23
-12 14 -12 16 0 8 11 -6 13 -4 8 8 -4 10 -2 17 5 17 6 0 5 6 -3 17 -11 13 -11
15 -1 9 10 -6 13 -3 12 10 -4 35 0 45 13 38 8 -5 8 -2 -2 9 -12 15 -11 17 3
17 10 0 14 5 11 10 -4 6 -11 7 -17 4 -5 -4 -2 6 8 22 14 21 15 26 4 19 -13 -8
-13 -7 -1 8 7 9 10 17 6 17 -4 0 -2 6 4 14 8 9 8 16 2 20 -14 9 -2 37 13 30 6
-4 3 1 -6 12 -17 17 -17 19 0 38 9 11 11 16 5 12 -16 -9 -16 -1 -2 26 9 17 9
20 -3 16 -17 -7 -17 34 1 56 10 12 9 15 -6 19 -16 4 -16 5 1 6 19 1 19 1 1 14
-14 11 -15 16 -5 22 9 6 11 4 5 -5 -5 -8 -4 -11 2 -7 11 7 10 43 -2 54 -4 5
-5 3 -1 -4 3 -6 3 -14 -2 -17 -12 -7 -11 28 1 36 7 4 6 12 -2 22 -7 8 -10 20
-6 26 3 5 0 10 -7 10 -9 0 -9 3 2 10 13 9 13 10 0 10 -13 0 -13 1 0 10 12 7
12 10 1 10 -7 0 -11 6 -8 14 4 11 1 13 -11 9 -14 -6 -15 -4 -4 9 8 10 9 17 3
20 -6 1 -11 20 -13 40 -1 20 -5 35 -9 32 -4 -2 -10 3 -13 12 -4 10 -2 13 7 9
6 -4 5 -1 -3 7 -8 7 -16 20 -18 28 -2 8 -8 17 -13 18 -6 2 -4 11 3 20 11 13
11 14 -1 7 -11 -6 -13 -4 -8 8 4 12 2 14 -11 10 -9 -3 -14 -2 -9 2 4 5 -1 17
-10 28 -13 15 -14 19 -3 13 9 -5 8 -2 -2 7 -10 8 -15 17 -11 20 3 4 1 7 -5 7
-6 0 -14 9 -17 20 -3 11 -13 20 -22 20 -12 0 -13 3 -4 14 10 11 8 16 -9 21
-15 5 -19 12 -15 23 3 9 3 13 -1 10 -8 -8 -34 14 -27 25 2 4 -4 7 -13 7 -10 0
-15 3 -11 6 7 8 -17 34 -32 34 -5 0 -8 9 -6 21 4 18 2 19 -12 7 -12 -9 -15 -9
-9 0 4 7 1 12 -9 12 -9 0 -13 5 -10 10 3 6 -1 10 -9 10 -19 0 -47 40 -39 54 4
6 0 5 -9 -2 -13 -11 -20 -8 -41 18 -14 16 -31 30 -37 30 -6 0 -13 7 -16 15 -4
8 -10 12 -15 9 -5 -3 -9 0 -9 6 0 6 -4 8 -10 5 -5 -3 -10 2 -10 12 0 15 -2 16
-10 3 -8 -13 -10 -12 -10 4 0 12 -5 16 -15 12 -8 -3 -15 -1 -15 4 0 6 -6 10
-14 10 -7 0 -19 6 -25 14 -7 8 -21 13 -31 11 -11 -2 -19 1 -17 8 1 6 -4 12
-10 13 -7 1 -16 3 -20 4 -5 1 -12 2 -17 1 -5 -1 -6 6 -2 15 5 14 4 15 -9 4
-10 -8 -15 -9 -15 -1 0 6 -12 11 -26 11 -17 0 -23 4 -18 13 5 7 0 6 -11 -3
-11 -9 -16 -10 -11 -2 5 8 0 12 -14 12 -13 0 -19 4 -14 12 4 7 3 8 -5 4 -6 -4
-19 -2 -27 5 -12 10 -13 9 -8 -7 6 -16 3 -15 -16 4 -15 16 -26 20 -33 13 -6
-6 -18 -4 -35 7 -21 14 -24 14 -17 2 7 -12 6 -13 -6 -4 -8 6 -24 10 -37 8 -14
-3 -21 0 -17 6 3 5 1 10 -4 10 -6 0 -11 -4 -11 -10 0 -5 -5 -10 -11 -10 -6 0
-8 7 -5 16 5 14 4 15 -9 4 -8 -7 -15 -9 -15 -4 0 12 -171 12 -189 0 -9 -6 -12
-5 -8 1 3 5 0 10 -8 10 -8 0 -12 -4 -10 -8z m125 -3 c0 -2 -7 -7 -16 -10 -8
-3 -12 -2 -9 4 6 10 25 14 25 6z m420 -2556 c0 -5 -5 -10 -11 -10 -5 0 -7 5
-4 10 3 6 8 10 11 10 2 0 4 -4 4 -10z"/>
<path d="M3290 4213 c0 -6 8 -17 18 -24 16 -13 16 -13 2 6 -8 11 -16 22 -17
24 -2 2 -3 0 -3 -6z"/>
<path d="M3736 3342 c-2 -4 0 -14 6 -22 8 -12 9 -12 5 2 -3 9 -1 19 6 22 9 3
9 5 0 5 -6 1 -14 -3 -17 -7z"/>
<path d="M3655 2820 c-3 -5 -1 -10 4 -10 6 0 11 5 11 10 0 6 -2 10 -4 10 -3 0
-8 -4 -11 -10z"/>
<path d="M3435 2340 c-3 -5 -1 -10 4 -10 6 0 11 5 11 10 0 6 -2 10 -4 10 -3 0
-8 -4 -11 -10z"/>
<path d="M3385 2250 c-3 -6 1 -7 9 -4 18 7 21 14 7 14 -6 0 -13 -4 -16 -10z"/>
</g>
</svg>
